# xmcd CD database file
#
# Track frame offsets:
#	150
#	40622
#	54942
#	92895
#	135042
#	160775
#
# Disc length: 2409 seconds
#
# Revision: 0
# Processed by: cddbd v1.5.1PL0 Copyright (c) Steve Scherf et al.
# Submitted via: CDex 1.51
#
DISCID=39096706
DTITLE=Manhattan Jazz Quintet - Manhattan Jazz Quintet
DYEAR=1984
DGENRE=Jazz
TTITLE0=Summertime
TTITLE1=Rosario
TTITLE2=Milestones
TTITLE3=My Favorite Things
TTITLE4=Airegin
TTITLE5=Summer Waltz
EXTD=YEAR: 1984
EXTT0=
EXTT1=
EXTT2=
EXTT3=
EXTT4=
EXTT5=
PLAYORDER=
